<?xml version="1.0" encoding="UTF-8"?>
<svg id="uuid-4b554235-ccd7-43ea-b08d-47fb3a1a305f" data-name="Ñëîé 1" xmlns="http://www.w3.org/2000/svg" viewBox="0 0 1116.88 1831.89">
  <defs>
    <style>
      .uuid-f8892f52-2f2e-4495-8512-e1dbc4395709 {
        fill: #e92463;
      }

      .uuid-f8892f52-2f2e-4495-8512-e1dbc4395709, .uuid-09537207-bf15-44a8-98ab-df10f86b9902, .uuid-f9300e97-92f6-42ef-92fe-1a3867c75a3d, .uuid-632c7140-cba9-4f23-9db7-422fdbd3ee81 {
        stroke-width: 0px;
      }

      .uuid-09537207-bf15-44a8-98ab-df10f86b9902 {
        fill: #f39200;
      }

      .uuid-f9300e97-92f6-42ef-92fe-1a3867c75a3d {
        fill: #e9201b;
      }

      .uuid-632c7140-cba9-4f23-9db7-422fdbd3ee81 {
        fill: #e94e00;
      }
    </style>
  </defs>
  <path class="uuid-09537207-bf15-44a8-98ab-df10f86b9902" d="m531.04,1831.89c-11.11,0-22.09-5.05-29.25-14.64-12.08-16.14-8.78-39.02,7.36-51.09,336.88-252.04,511.05-472.37,532.46-673.61,22.42-210.72-127.82-383.25-273.12-550.1-66.45-76.3-135.16-155.2-186.17-236.68-28.09-44.86-48.77-86.96-63.23-128.7-16.3-47.06-24.57-94.35-24.57-140.57C494.51,16.35,510.85.01,531.01.01s36.5,16.34,36.5,36.5c0,164.01,124.36,306.82,256.02,458.01,75.88,87.13,154.33,177.22,210.7,274.76,65.45,113.25,91.61,221.53,79.96,331.01-5.59,52.5-20.14,106.32-43.27,159.97-24.16,56.04-58.55,113.96-102.22,172.13-45.38,60.44-102.4,123.34-169.5,186.96-69.65,66.04-152.53,135.11-246.33,205.28-6.56,4.91-14.23,7.28-21.84,7.28Z"/>
  <path class="uuid-632c7140-cba9-4f23-9db7-422fdbd3ee81" d="m530.99,1831.89c-8.36,0-16.76-2.86-23.63-8.69-15.36-13.06-17.22-36.09-4.16-51.45,148.44-174.57,207.67-324.12,186.42-470.65-18.87-130.1-98.19-241.67-182.17-359.8-85.32-120.02-173.55-244.13-196.87-392.91-12.77-81.5-5.18-162.11,23.21-246.45,31.15-92.54,86.39-186.88,168.88-288.43,12.71-15.65,35.7-18.03,51.34-5.32,15.65,12.71,18.03,35.7,5.32,51.34-141.85,174.63-199.62,330.84-176.63,477.56,20.65,131.8,100.12,243.58,184.24,361.92,85.3,120,173.51,244.08,194.91,391.62,11.72,80.79,2.74,160.6-27.44,244.01-33.02,91.23-90.46,184.26-175.61,284.4-7.22,8.49-17.49,12.86-27.82,12.86Z"/>
  <path class="uuid-f8892f52-2f2e-4495-8512-e1dbc4395709" d="m531.04,1831.89c-11.44,0-22.7-5.36-29.81-15.4-84.93-119.86-144.34-227.85-181.63-330.15-34.01-93.3-48.86-180.03-45.39-265.15,2.91-71.4,19.1-142.68,49.51-217.92,26.62-65.85,61.43-128.59,95.1-189.27,114.84-206.97,223.31-402.46,78.32-763.9-7.5-18.71,1.58-39.96,20.29-47.46,18.71-7.51,39.96,1.58,47.46,20.29,37.6,93.73,60.4,180.19,69.72,264.33,8.36,75.51,5.57,147.06-8.55,218.75-25.92,131.66-85.65,239.31-143.41,343.42-136.02,245.14-253.49,456.85,78.14,924.87,11.66,16.45,7.77,39.23-8.68,50.88-6.41,4.54-13.78,6.72-21.07,6.72Z"/>
  <path class="uuid-f9300e97-92f6-42ef-92fe-1a3867c75a3d" d="m530.98,1831.89c-7.64,0-15.35-2.39-21.92-7.34-167.59-126.17-289.75-239.74-373.44-347.21C57.19,1376.62,13.72,1282.56,2.72,1189.77c-5.56-46.92-2.59-94.44,8.84-141.23,10.22-41.83,27.03-83.67,51.39-127.9,44.16-80.16,105.51-154.56,170.46-233.33C382.59,506.41,536.84,319.35,494.92,41.96c-3.01-19.93,10.7-38.53,30.64-41.54,19.93-3.01,38.53,10.7,41.54,30.64,46.79,309.6-125.42,518.44-277.36,702.7-125.52,152.22-233.93,283.68-214.52,447.43,9.39,79.19,47.98,161.39,118,251.3,79.68,102.33,197.36,211.49,359.74,333.74,16.1,12.12,19.33,35.01,7.21,51.11-7.17,9.53-18.11,14.55-29.19,14.55Z"/>
</svg>